<svg width="41" height="52" viewBox="0 0 41 52" fill="none" xmlns="http://www.w3.org/2000/svg">
<path d="M24.0828 0.444984C23.8531 0.247593 23.5808 0.110176 23.2889 0.0443197C22.997 -0.0215368 22.6941 -0.0139028 22.4056 0.0665779C22.1172 0.147059 21.8517 0.298027 21.6315 0.506756C21.4114 0.715484 21.243 0.975854 21.1406 1.26592L16.0156 15.8092L10.3874 10.1734C10.1984 9.98394 9.97272 9.83803 9.72517 9.74527C9.47763 9.65252 9.21387 9.61503 8.95129 9.63528C8.68871 9.65552 8.43325 9.73304 8.20177 9.86272C7.97028 9.99241 7.76802 10.1713 7.6083 10.3877C2.5625 17.2199 0 24.0931 0 30.8147C0 36.4334 2.15982 41.8219 6.00431 45.795C9.84881 49.768 15.0631 52 20.5 52C25.9369 52 31.1512 49.768 34.9957 45.795C38.8402 41.8219 41 36.4334 41 30.8147C41 16.5025 29.1682 4.81446 24.0828 0.444984Z" fill="#FE7A60"/>
</svg>
